<?xml version="1.0" encoding="UTF-8" standalone="no"?><svg xmlns="http://www.w3.org/2000/svg" xmlns:xlink="http://www.w3.org/1999/xlink" contentStyleType="text/css" height="638px" preserveAspectRatio="none" style="width:834px;height:638px;background:#FFFFFF;" version="1.1" viewBox="0 0 834 638" width="834px" zoomAndPan="magnify"><defs/><g><g id="elem_juegoDelTren"><rect fill="#F1F1F1" height="37.6094" style="stroke:#181818;stroke-width:0.5;" width="100" x="355" y="7"/><text fill="#000000" font-family="sans-serif" font-size="14" lengthAdjust="spacing" textLength="86" x="362" y="23.5332">juegoDelTren</text><line style="stroke:#181818;stroke-width:0.5;" x1="356" x2="454" y1="28.6094" y2="28.6094"/></g><g id="elem_nombre"><rect fill="#F1F1F1" height="37.6094" style="stroke:#181818;stroke-width:0.5;" width="62" x="288" y="203"/><text fill="#000000" font-family="sans-serif" font-size="14" lengthAdjust="spacing" textLength="48" x="295" y="219.5332">nombre</text><line style="stroke:#181818;stroke-width:0.5;" x1="289" x2="349" y1="224.6094" y2="224.6094"/></g><g id="elem_tiempoABatir"><rect fill="#F1F1F1" height="37.6094" style="stroke:#181818;stroke-width:0.5;" width="94" x="160" y="301"/><text fill="#000000" font-family="sans-serif" font-size="14" lengthAdjust="spacing" textLength="80" x="167" y="317.5332">tiempoABatir</text><line style="stroke:#181818;stroke-width:0.5;" x1="161" x2="253" y1="322.6094" y2="322.6094"/></g><g id="elem_jugador"><rect fill="#F1F1F1" height="37.6094" style="stroke:#181818;stroke-width:0.5;" width="62" x="289" y="105"/><text fill="#000000" font-family="sans-serif" font-size="14" lengthAdjust="spacing" textLength="48" x="296" y="121.5332">jugador</text><line style="stroke:#181818;stroke-width:0.5;" x1="290" x2="350" y1="126.6094" y2="126.6094"/></g><g id="elem_camino"><rect fill="#F1F1F1" height="37.6094" style="stroke:#181818;stroke-width:0.5;" width="59" x="461.5" y="105"/><text fill="#000000" font-family="sans-serif" font-size="14" lengthAdjust="spacing" textLength="45" x="468.5" y="121.5332">camino</text><line style="stroke:#181818;stroke-width:0.5;" x1="462.5" x2="519.5" y1="126.6094" y2="126.6094"/></g><g id="elem_goal"><rect fill="#F1F1F1" height="37.6094" style="stroke:#181818;stroke-width:0.5;" width="41" x="638.5" y="301"/><text fill="#000000" font-family="sans-serif" font-size="14" lengthAdjust="spacing" textLength="27" x="645.5" y="317.5332">goal</text><line style="stroke:#181818;stroke-width:0.5;" x1="639.5" x2="678.5" y1="322.6094" y2="322.6094"/></g><g id="elem_tren"><rect fill="#F1F1F1" height="37.6094" style="stroke:#181818;stroke-width:0.5;" width="39" x="385.5" y="203"/><text fill="#000000" font-family="sans-serif" font-size="14" lengthAdjust="spacing" textLength="25" x="392.5" y="219.5332">tren</text><line style="stroke:#181818;stroke-width:0.5;" x1="386.5" x2="423.5" y1="224.6094" y2="224.6094"/></g><g id="elem_vagonPrincipal"><rect fill="#F1F1F1" height="37.6094" style="stroke:#181818;stroke-width:0.5;" width="107" x="80.5" y="399"/><text fill="#000000" font-family="sans-serif" font-size="14" lengthAdjust="spacing" textLength="93" x="87.5" y="415.5332">vagonPrincipal</text><line style="stroke:#181818;stroke-width:0.5;" x1="81.5" x2="186.5" y1="420.6094" y2="420.6094"/></g><g id="elem_vagones"><rect fill="#F1F1F1" height="37.6094" style="stroke:#181818;stroke-width:0.5;" width="68" x="330" y="301"/><text fill="#000000" font-family="sans-serif" font-size="14" lengthAdjust="spacing" textLength="54" x="337" y="317.5332">vagones</text><line style="stroke:#181818;stroke-width:0.5;" x1="331" x2="397" y1="322.6094" y2="322.6094"/></g><g id="elem_ruedas"><rect fill="#F1F1F1" height="37.6094" style="stroke:#181818;stroke-width:0.5;" width="58" x="223" y="399"/><text fill="#000000" font-family="sans-serif" font-size="14" lengthAdjust="spacing" textLength="44" x="230" y="415.5332">ruedas</text><line style="stroke:#181818;stroke-width:0.5;" x1="224" x2="280" y1="420.6094" y2="420.6094"/></g><g id="elem_capacidadKg"><rect fill="#F1F1F1" height="37.6094" style="stroke:#181818;stroke-width:0.5;" width="96" x="316" y="399"/><text fill="#000000" font-family="sans-serif" font-size="14" lengthAdjust="spacing" textLength="82" x="323" y="415.5332">capacidadKg</text><line style="stroke:#181818;stroke-width:0.5;" x1="317" x2="411" y1="420.6094" y2="420.6094"/></g><g id="elem_distancia"><rect fill="#F1F1F1" height="37.6094" style="stroke:#181818;stroke-width:0.5;" width="70" x="460" y="203"/><text fill="#000000" font-family="sans-serif" font-size="14" lengthAdjust="spacing" textLength="56" x="467" y="219.5332">distancia</text><line style="stroke:#181818;stroke-width:0.5;" x1="461" x2="529" y1="224.6094" y2="224.6094"/></g><g id="elem_vagonCarga"><rect fill="#F1F1F1" height="37.6094" style="stroke:#181818;stroke-width:0.5;" width="92" x="447" y="399"/><text fill="#000000" font-family="sans-serif" font-size="14" lengthAdjust="spacing" textLength="78" x="454" y="415.5332">vagonCarga</text><line style="stroke:#181818;stroke-width:0.5;" x1="448" x2="538" y1="420.6094" y2="420.6094"/></g><g id="elem_acelerar"><rect fill="#F1F1F1" height="37.6094" style="stroke:#181818;stroke-width:0.5;" width="66" x="7" y="595"/><text fill="#000000" font-family="sans-serif" font-size="14" lengthAdjust="spacing" textLength="52" x="14" y="611.5332">acelerar</text><line style="stroke:#181818;stroke-width:0.5;" x1="8" x2="72" y1="616.6094" y2="616.6094"/></g><g id="elem_pitar"><rect fill="#F1F1F1" height="37.6094" style="stroke:#181818;stroke-width:0.5;" width="42" x="786" y="399"/><text fill="#000000" font-family="sans-serif" font-size="14" lengthAdjust="spacing" textLength="28" x="793" y="415.5332">pitar</text><line style="stroke:#181818;stroke-width:0.5;" x1="787" x2="827" y1="420.6094" y2="420.6094"/></g><g id="elem_frenar"><rect fill="#F1F1F1" height="37.6094" style="stroke:#181818;stroke-width:0.5;" width="52" x="108" y="595"/><text fill="#000000" font-family="sans-serif" font-size="14" lengthAdjust="spacing" textLength="38" x="115" y="611.5332">frenar</text><line style="stroke:#181818;stroke-width:0.5;" x1="109" x2="159" y1="616.6094" y2="616.6094"/></g><g id="elem_avanzar"><rect fill="#F1F1F1" height="37.6094" style="stroke:#181818;stroke-width:0.5;" width="64" x="574" y="399"/><text fill="#000000" font-family="sans-serif" font-size="14" lengthAdjust="spacing" textLength="50" x="581" y="415.5332">avanzar</text><line style="stroke:#181818;stroke-width:0.5;" x1="575" x2="637" y1="420.6094" y2="420.6094"/></g><g id="elem_vagonPrincipalGoal"><rect fill="#F1F1F1" height="37.6094" style="stroke:#181818;stroke-width:0.5;" width="137" x="65.5" y="497"/><text fill="#000000" font-family="sans-serif" font-size="14" lengthAdjust="spacing" textLength="123" x="72.5" y="513.5332">vagonPrincipalGoal</text><line style="stroke:#181818;stroke-width:0.5;" x1="66.5" x2="201.5" y1="518.6094" y2="518.6094"/></g><g id="elem_jugadorGoal"><rect fill="#F1F1F1" height="37.6094" style="stroke:#181818;stroke-width:0.5;" width="92" x="161" y="203"/><text fill="#000000" font-family="sans-serif" font-size="14" lengthAdjust="spacing" textLength="78" x="168" y="219.5332">jugadorGoal</text><line style="stroke:#181818;stroke-width:0.5;" x1="162" x2="252" y1="224.6094" y2="224.6094"/></g><g id="elem_detenerse"><rect fill="#F1F1F1" height="37.6094" style="stroke:#181818;stroke-width:0.5;" width="78" x="673" y="399"/><text fill="#000000" font-family="sans-serif" font-size="14" lengthAdjust="spacing" textLength="64" x="680" y="415.5332">detenerse</text><line style="stroke:#181818;stroke-width:0.5;" x1="674" x2="750" y1="420.6094" y2="420.6094"/></g><g id="elem_tocarClaxon"><rect fill="#F1F1F1" height="37.6094" style="stroke:#181818;stroke-width:0.5;" width="89" x="195.5" y="595"/><text fill="#000000" font-family="sans-serif" font-size="14" lengthAdjust="spacing" textLength="75" x="202.5" y="611.5332">tocarClaxon</text><line style="stroke:#181818;stroke-width:0.5;" x1="196.5" x2="283.5" y1="616.6094" y2="616.6094"/></g><!--MD5=[185c63b246dd2b32f96f53cd9bedc4ac]
reverse link juegoDelTren to tren--><g id="link_juegoDelTren_tren"><path codeLine="24" d="M405,58.43 C405,99.46 405,169.92 405,202.94 " fill="none" id="juegoDelTren-backto-tren" style="stroke:#181818;stroke-width:1.0;"/><polygon fill="#181818" points="405,45.25,401,51.25,405,57.25,409,51.25,405,45.25" style="stroke:#181818;stroke-width:1.0;"/></g><!--MD5=[50f9039b0cc947f2d7ed12cf70e959e4]
reverse link juegoDelTren to jugador--><g id="link_juegoDelTren_jugador"><path codeLine="25" d="M380.24,54.97 C366.05,70.99 348.65,90.64 336.21,104.7 " fill="none" id="juegoDelTren-backto-jugador" style="stroke:#181818;stroke-width:1.0;"/><polygon fill="#181818" points="389.01,45.06,382.0362,46.8946,381.0475,54.0376,388.0213,52.203,389.01,45.06" style="stroke:#181818;stroke-width:1.0;"/></g><!--MD5=[229e1048e476dde41711cc124e6c4666]
reverse link juegoDelTren to camino--><g id="link_juegoDelTren_camino"><path codeLine="26" d="M430.05,54.97 C444.41,70.99 462.01,90.64 474.6,104.7 " fill="none" id="juegoDelTren-backto-camino" style="stroke:#181818;stroke-width:1.0;"/><polygon fill="#181818" points="421.18,45.06,422.2078,52.1975,429.1915,53.9939,428.1638,46.8564,421.18,45.06" style="stroke:#181818;stroke-width:1.0;"/></g><!--MD5=[8708fb53dc6406da680cb6fe1d574ef3]
reverse link jugador to jugadorGoal--><g id="link_jugador_jugadorGoal"><path codeLine="28" d="M288.69,151.6 C269.55,167.86 245.56,188.24 228.54,202.7 " fill="none" id="jugador-backto-jugadorGoal" style="stroke:#181818;stroke-width:1.0;"/><polygon fill="#181818" points="298.75,143.06,291.5877,143.8978,289.6064,150.8314,296.7687,149.9936,298.75,143.06" style="stroke:#181818;stroke-width:1.0;"/></g><!--MD5=[27416878bcba41a49e20580197f314f6]
reverse link jugadorGoal to tiempoABatir--><g id="link_jugadorGoal_tiempoABatir"><path codeLine="29" d="M207,261.43 C207,274.98 207,289.59 207,300.7 " fill="none" id="jugadorGoal-backto-tiempoABatir" style="stroke:#181818;stroke-width:1.0;"/><polygon fill="none" points="200,261.06,207,241.06,214,261.06,200,261.06" style="stroke:#181818;stroke-width:1.0;"/></g><!--MD5=[65a58845df179e3897a461f3d6ce71d4]
reverse link tren to vagones--><g id="link_tren_vagones"><path codeLine="31" d="M392.07,253.28 C385.42,268.85 377.53,287.31 371.82,300.7 " fill="none" id="tren-backto-vagones" style="stroke:#181818;stroke-width:1.0;"/><polygon fill="#181818" points="397.29,241.06,391.2567,245.0096,392.5821,252.0979,398.6153,248.1483,397.29,241.06" style="stroke:#181818;stroke-width:1.0;"/></g><!--MD5=[831c0722b95db806e690773808576eda]
reverse link vagones to vagonCarga--><g id="link_vagones_vagonCarga"><path codeLine="32" d="M404.37,351.05 C425.36,366.66 450.33,385.24 468.41,398.7 " fill="none" id="vagones-backto-vagonCarga" style="stroke:#181818;stroke-width:1.0;"/><polygon fill="none" points="400.13,356.61,388.26,339.06,408.49,345.38,400.13,356.61" style="stroke:#181818;stroke-width:1.0;"/></g><!--MD5=[88ccff6f3fe542ec2ac2c5d27aa85b30]
reverse link vagones to vagonPrincipal--><g id="link_vagones_vagonPrincipal"><path codeLine="33" d="M310.98,343.13 C270.43,360.05 215.23,383.1 177.32,398.92 " fill="none" id="vagones-backto-vagonPrincipal" style="stroke:#181818;stroke-width:1.0;"/><polygon fill="none" points="308.41,336.62,329.57,335.37,313.81,349.54,308.41,336.62" style="stroke:#181818;stroke-width:1.0;"/></g><!--MD5=[0c0769ff7eeb044099759c7637796054]
reverse link vagones to ruedas--><g id="link_vagones_ruedas"><path codeLine="34" d="M332.96,347.6 C313.99,363.86 290.22,384.24 273.35,398.7 " fill="none" id="vagones-backto-ruedas" style="stroke:#181818;stroke-width:1.0;"/><polygon fill="#181818" points="342.93,339.06,335.7711,339.926,333.8171,346.8673,340.976,346.0013,342.93,339.06" style="stroke:#181818;stroke-width:1.0;"/></g><!--MD5=[483f01368d7992303fd12e71b5684e84]
reverse link vagones to capacidadKg--><g id="link_vagones_capacidadKg"><path codeLine="35" d="M364,352.22 C364,367.59 364,385.58 364,398.7 " fill="none" id="vagones-backto-capacidadKg" style="stroke:#181818;stroke-width:1.0;"/><polygon fill="#181818" points="364,339.06,360,345.06,364,351.06,368,345.06,364,339.06" style="stroke:#181818;stroke-width:1.0;"/></g><!--MD5=[11ab895701c3410e019cc50e919a84bd]
reverse link vagonPrincipal to vagonPrincipalGoal--><g id="link_vagonPrincipal_vagonPrincipalGoal"><path codeLine="37" d="M134,450.22 C134,465.59 134,483.58 134,496.7 " fill="none" id="vagonPrincipal-backto-vagonPrincipalGoal" style="stroke:#181818;stroke-width:1.0;"/><polygon fill="#181818" points="134,437.06,130,443.06,134,449.06,138,443.06,134,437.06" style="stroke:#181818;stroke-width:1.0;"/></g><!--MD5=[72807472315f482d8beb2ae2cc18aaa0]
reverse link vagonPrincipalGoal to tocarClaxon--><g id="link_vagonPrincipalGoal_tocarClaxon"><path codeLine="39" d="M168.99,548.69 C185.84,563.95 205.45,581.71 219.79,594.7 " fill="none" id="vagonPrincipalGoal-backto-tocarClaxon" style="stroke:#181818;stroke-width:1.0;"/><polygon fill="none" points="164.06,553.67,153.94,535.06,173.46,543.29,164.06,553.67" style="stroke:#181818;stroke-width:1.0;"/></g><!--MD5=[b59496ff5b08ee2775c916e954add43a]
reverse link vagonPrincipalGoal to acelerar--><g id="link_vagonPrincipalGoal_acelerar"><path codeLine="40" d="M102.04,549.64 C87.31,564.68 70.37,581.98 57.92,594.7 " fill="none" id="vagonPrincipalGoal-backto-acelerar" style="stroke:#181818;stroke-width:1.0;"/><polygon fill="none" points="97.33,544.45,116.32,535.06,107.33,554.24,97.33,544.45" style="stroke:#181818;stroke-width:1.0;"/></g><!--MD5=[f7fb3feb2080ec0b02944b74d358c220]
reverse link vagonPrincipalGoal to frenar--><g id="link_vagonPrincipalGoal_frenar"><path codeLine="41" d="M134,555.43 C134,568.98 134,583.59 134,594.7 " fill="none" id="vagonPrincipalGoal-backto-frenar" style="stroke:#181818;stroke-width:1.0;"/><polygon fill="none" points="127,555.06,134,535.06,141,555.06,127,555.06" style="stroke:#181818;stroke-width:1.0;"/></g><!--MD5=[da7d8b2ebf68ba5acdbc37cc63b9e765]
reverse link tren to goal--><g id="link_tren_goal"><path codeLine="43" d="M436.63,238.26 C438.78,239.21 440.92,240.13 443,241 C513.49,270.34 599.39,299.43 638.2,312.23 " fill="none" id="tren-backto-goal" style="stroke:#181818;stroke-width:1.0;"/><polygon fill="#181818" points="424.56,232.71,428.3391,238.8515,435.4617,237.7253,431.6826,231.5838,424.56,232.71" style="stroke:#181818;stroke-width:1.0;"/></g><!--MD5=[a4b331462bb20022d6fcd629192c3d8e]
reverse link goal to avanzar--><g id="link_goal_avanzar"><path codeLine="44" d="M639.13,357 C631.28,371.21 622.61,386.92 616.1,398.7 " fill="none" id="goal-backto-avanzar" style="stroke:#181818;stroke-width:1.0;"/><polygon fill="none" points="633.24,353.18,649.03,339.06,645.49,359.95,633.24,353.18" style="stroke:#181818;stroke-width:1.0;"/></g><!--MD5=[d45694e9b96060ce4d71425b57060ee4]
reverse link goal to pitar--><g id="link_goal_pitar"><path codeLine="45" d="M696.51,345.33 C724.72,363.63 762.37,388.05 785.64,403.14 " fill="none" id="goal-backto-pitar" style="stroke:#181818;stroke-width:1.0;"/><polygon fill="none" points="692.55,351.1,679.58,334.35,700.17,339.36,692.55,351.1" style="stroke:#181818;stroke-width:1.0;"/></g><!--MD5=[c2379ed689b58de5db0c6532b406a9df]
reverse link goal to detenerse--><g id="link_goal_detenerse"><path codeLine="46" d="M678.87,357 C686.72,371.21 695.39,386.92 701.9,398.7 " fill="none" id="goal-backto-detenerse" style="stroke:#181818;stroke-width:1.0;"/><polygon fill="none" points="672.51,359.95,668.97,339.06,684.76,353.18,672.51,359.95" style="stroke:#181818;stroke-width:1.0;"/></g><!--MD5=[a34a21875489c93c45e6922a623cdd5a]
reverse link camino to distancia--><g id="link_camino_distancia"><path codeLine="48" d="M492.3,156.22 C492.94,171.59 493.69,189.58 494.24,202.7 " fill="none" id="camino-backto-distancia" style="stroke:#181818;stroke-width:1.0;"/><polygon fill="#181818" points="491.75,143.06,488.0041,149.2218,492.2512,155.0495,495.9971,148.8877,491.75,143.06" style="stroke:#181818;stroke-width:1.0;"/></g><!--MD5=[e161f164ee52cf2f02543650d1d6fc65]
link jugador to tren--><g id="link_jugador_tren"><path codeLine="50" d="M335.99,143.06 C349.91,158.78 370.15,181.64 385.11,198.54 " fill="none" id="jugador-to-tren" style="stroke:#181818;stroke-width:1.0;"/><polygon fill="#181818" points="388.79,202.7,385.8182,193.3102,385.4753,198.9567,379.8288,198.6138,388.79,202.7" style="stroke:#181818;stroke-width:1.0;"/></g><!--MD5=[dac921d2f857714f8b59440ac0f49198]
reverse link jugador to nombre--><g id="link_jugador_nombre"><path codeLine="51" d="M319.67,156.22 C319.51,171.59 319.33,189.58 319.19,202.7 " fill="none" id="jugador-backto-nombre" style="stroke:#181818;stroke-width:1.0;"/><polygon fill="#181818" points="319.81,143.06,315.7509,149.0201,319.6913,155.0594,323.7505,149.0993,319.81,143.06" style="stroke:#181818;stroke-width:1.0;"/></g><!--MD5=[8a2db032a085fa91b832f1673bd67257]
@startuml Name

object juegoDelTren
object nombre
object tiempoABatir
object jugador
object camino
object goal
object tren
object vagonPrincipal
object vagones
object ruedas
object capacidadKg
object distancia
object vagonCarga
object acelerar
object pitar
object frenar
object avanzar
object vagonPrincipalGoal
object jugadorGoal
object detenerse
object tocarClaxon

juegoDelTren *- - tren
juegoDelTren *- - jugador
juegoDelTren *- - camino

jugador *- - jugadorGoal
jugadorGoal <|- - tiempoABatir

tren *- - vagones
vagones <|- - vagonCarga
vagones <|- - vagonPrincipal
vagones *- - ruedas
vagones *- - capacidadKg

vagonPrincipal *- - vagonPrincipalGoal

vagonPrincipalGoal <|- - tocarClaxon
vagonPrincipalGoal <|- - acelerar
vagonPrincipalGoal <|- - frenar

tren *- - goal
goal <|- - avanzar
goal <|- - pitar
goal <|- - detenerse

camino *- - distancia

jugador - -> tren
jugador *- - nombre



@enduml

PlantUML version 1.2022.7(Mon Aug 22 11:01:30 CST 2022)
(GPL source distribution)
Java Runtime: OpenJDK Runtime Environment
JVM: OpenJDK 64-Bit Server VM
Default Encoding: UTF-8
Language: en
Country: US
--></g></svg>